<svg width="368" height="502" viewBox="0 0 368 502" fill="none" xmlns="http://www.w3.org/2000/svg">
<circle cx="330.201" cy="221.474" r="3.06538" fill="#F4F6F8"/>
<circle cx="237.828" cy="247.049" r="3.06538" fill="#F4F6F8"/>
<circle cx="345.767" cy="335.81" r="3.06538" fill="#F4F6F8"/>
<path d="M305 344.132L315.074 354.206M315.074 344.132L305 354.206" stroke="#CF4264" strokeWidth="3.45898"/>
<path d="M245.188 422.235L256.886 414.102M246.971 412.32L255.104 424.018" stroke="#B4FED2" strokeWidth="3.45898"/>
<path d="M40 91.4062L50.0745 81.3318M40 81.3318L50.0745 91.4062" stroke="#C43256" strokeWidth="3.45898"/>
<path d="M3.7207 275.873H17.9681M10.8444 268.749V282.997" stroke="#008060" strokeWidth="3.45898"/>
<path fillRule="evenodd" clipRule="evenodd" d="M216.791 127.14L218.513 128.862L219.736 127.639L218.014 125.917L219.736 124.195L218.513 122.972L216.791 124.694L215.069 122.972L213.846 124.195L215.568 125.917L213.845 127.639L215.068 128.862L216.791 127.14Z" fill="#CF4264"/>
<circle cx="363.57" cy="155.282" r="4.16874" fill="#FFCA5F"/>
<circle cx="39.1687" cy="497.7" r="4.16874" fill="white"/>
<circle cx="332.779" cy="446.152" r="2.77916" fill="#FFCA5F"/>
<circle cx="180.313" cy="194.567" r="2.08437" stroke="#90DFD6" strokeWidth="1.38958"/>
<circle cx="346.345" cy="266.342" r="2.77916" fill="#D8E7F0"/>
<circle cx="113.15" cy="239.82" r="3.06538" fill="#F4F6F8"/>
<circle cx="40.1113" cy="256.245" r="3.06538" fill="#F4F6F8"/>
<circle cx="126.986" cy="194.853" r="3.06538" fill="#DFE3E8"/>
<circle cx="71.642" cy="191.805" r="3.06538" fill="#D8E7F0"/>
<circle cx="222.502" cy="265.441" r="3.06538" fill="#DFE3E8"/>
<circle cx="46.2421" cy="320.054" r="3.06538" fill="#D8E7F0"/>
<circle cx="3.32709" cy="354.738" r="3.06538" fill="#D8E7F0"/>
<circle cx="309.752" cy="187.397" r="3.06538" fill="#FFCA5F"/>
<circle cx="69.2324" cy="414.349" r="3.06538" fill="#FFCA5F"/>
<circle cx="318.065" cy="3.19721" r="3.06538" fill="#FFCA5F"/>
<circle cx="87.6245" cy="245.515" r="3.06538" fill="#FFCA5F"/>
<circle cx="216.055" cy="197.447" r="3.06538" fill="#FFCA5F"/>
<path fillRule="evenodd" clipRule="evenodd" d="M281.971 272.022C281.971 332.232 233.416 380.98 173.446 380.98C113.475 380.98 64.9199 332.232 64.9199 272.022C64.9199 232.475 85.9015 197.85 117.334 178.722C133.733 168.795 152.866 163.064 173.446 163.064C196.678 163.064 218.142 170.409 235.747 182.838C263.723 202.531 281.971 235.138 281.971 272.022Z" fill="#92FEC2"/>
<path d="M52.8145 208.113L59.7324 258.578L38.9785 309.044H127.104L140.94 208.113C140.94 208.113 52.4476 208.53 52.8145 208.113Z" fill="#004C3F"/>
<path fillRule="evenodd" clipRule="evenodd" d="M54.5991 271.332L59.7541 258.797L57.6341 243.332H136.163L132.325 271.332H54.5991Z" fill="#5BA7B1"/>
<path d="M241.493 258.147L226.925 366.711L237.354 360.088L251.265 258.147H241.493Z" fill="#FEC95F"/>
<path d="M254.942 157.911C230.391 157.911 203.009 155.299 183.973 174.338C166.018 192.295 146.795 189.853 123.761 189.853L109.925 290.099C136.648 290.099 163.307 295.243 183.973 274.574C199.652 258.893 220.93 258.147 241.493 258.147L254.942 157.911Z" fill="#008060"/>
<path fillRule="evenodd" clipRule="evenodd" d="M251.258 185.367C250.925 185.367 250.592 185.367 250.258 185.367C228.777 185.355 205.498 185.341 189.048 201.794C172.664 218.18 150.673 217.795 129.308 217.42C126.176 217.365 123.057 217.311 119.971 217.309L115.383 250.556C119.087 250.562 122.737 250.653 126.331 250.742C147.285 251.265 166.34 251.741 183.048 235.03C199.487 218.588 224.516 218.596 246.233 218.603C246.422 218.603 246.61 218.603 246.798 218.603L251.258 185.367Z" fill="#7FBEC6"/>
<path fillRule="evenodd" clipRule="evenodd" d="M264.944 157.911H254.943L241.493 258.147H251.265L264.944 157.911Z" fill="#004C3F"/>
<path d="M109.886 290.181L127.181 309.205L130.64 290.295L109.886 290.181Z" fill="#025F48"/>
<circle cx="138.5" cy="104.5" r="3.17309" stroke="#90DFD6" strokeWidth="0.653824"/>
<circle cx="208.5" cy="441.5" r="2.17309" stroke="#90DFD6" strokeWidth="0.653824"/>
</svg>
