<svg width="226" height="151" viewBox="0 0 226 151" fill="none" xmlns="http://www.w3.org/2000/svg">
<g clip-path="url(#clip0_429_16982)">
<rect width="226" height="151" fill="white"/>
<path d="M187 76C187 116.9 153.9 150 113 150C72.1 150 39 116.9 39 76C39 35.1 72.1 2 113 2C153.9 2 187 35.1 187 76Z" fill="#71A19B" fill-opacity="0.5"/>
<mask id="mask0_429_16982" style="mask-type:alpha" maskUnits="userSpaceOnUse" x="39" y="-3" width="168" height="153">
<path d="M207 70.5C207 75.6088 185.89 89 185.5 90.9119C178.609 124.653 148.791 150 113 150C72.1 150 39 116.9 39 76C39 62.9279 42.3812 50.6525 48.3176 40C45 13.5 85.1721 1.99997 113 1.99997C139.582 1.99997 192.5 -6 197 9.05991e-06C198.974 3.18027 177.519 55.5216 179 59C182.791 67.9034 207 60.2046 207 70.5Z" fill="#D2D2D2"/>
</mask>
<g mask="url(#mask0_429_16982)">
<g filter="url(#filter0_d_429_16982)">
<rect x="49" y="31" width="120" height="119.52" rx="3.84" fill="white"/>
</g>
<path d="M49 34.84C49 32.7192 50.7192 31 52.84 31H165.16C167.281 31 169 32.7192 169 34.84V65.56H49V34.84Z" fill="#E2D6FA"/>
<rect x="77.8" y="43.96" width="63.84" height="8.64" rx="4.32" fill="black" fill-opacity="0.6"/>
<g opacity="0.5">
<circle cx="67.96" cy="87.4" r="6.48" fill="#D9D9D9"/>
<circle cx="88.6001" cy="87.4001" r="6.48" fill="#D9D9D9"/>
<circle cx="109.24" cy="87.4001" r="6.48" fill="#D9D9D9"/>
<circle cx="129.88" cy="87.4001" r="6.48" fill="#D9D9D9"/>
<circle cx="67.96" cy="108.04" r="6.48" fill="#D9D9D9"/>
<circle cx="88.6001" cy="108.04" r="6.48" fill="#D9D9D9"/>
<circle cx="109.24" cy="108.04" r="6.48" fill="#D9D9D9"/>
<circle cx="129.88" cy="108.04" r="6.48" fill="#D9D9D9"/>
<circle cx="67.96" cy="128.68" r="6.48" fill="#D9D9D9"/>
<circle cx="88.6001" cy="128.68" r="6.48" fill="#D9D9D9"/>
<circle cx="109.24" cy="128.68" r="6.48" fill="#D9D9D9"/>
</g>
<path d="M205.702 71.4729C204.308 69.0028 201.062 67.2157 197.591 67.1213C195.892 67.0704 194.201 67.0632 192.516 67.0995C190.606 67.1431 188.82 67.6952 187.47 68.6323C186.562 69.2644 185.669 69.9109 184.791 70.572C182.852 72.0177 180.129 72.6062 177.515 72.1775C175.627 71.8579 173.718 71.6036 171.786 71.4075C171.699 71.4002 171.605 71.4002 171.518 71.393C170.661 71.3276 169.797 71.3566 168.947 71.4801C166.856 73.507 164.199 74.9599 161.214 75.5992C159.356 77.1393 157.577 78.7303 155.892 80.3722C155.667 80.5901 155.464 80.8226 155.268 81.055C155.391 79.4132 155.529 77.7496 155.711 76.0642C155.718 75.977 155.732 75.8898 155.74 75.8027C155.638 75.7881 155.536 75.7808 155.427 75.7663H155.369C155.711 72.2792 156.103 68.6759 156.589 65.0072C156.778 64.7675 157.076 64.4115 157.482 63.9829C158.412 63.0022 159.915 61.6364 162.071 60.3433C164.838 58.6869 169.122 56.8925 175.083 56.5293H175.119L175.293 55.7883H175.257C166.036 56.3113 160.438 60.198 157.722 62.7406C157.352 63.0894 157.032 63.409 156.764 63.6996C157.098 61.2732 157.475 58.8249 157.918 56.3695C157.533 55.5921 157.083 54.7422 156.531 53.8413C154.796 50.9936 152.167 47.7317 148.305 45.0147C146.591 43.8087 144.631 42.719 142.394 41.8182C142.489 41.593 142.598 41.375 142.706 41.1644C144.652 41.949 146.395 42.8788 147.949 43.8959C152.058 46.5911 154.883 49.9184 156.785 52.8824C157.301 53.6888 157.751 54.4734 158.136 55.2071C158.303 54.3135 158.47 53.42 158.651 52.5264C158.383 51.9162 158.012 51.1679 157.519 50.3325C157.003 49.468 156.364 48.5163 155.544 47.5137C153.765 45.3343 150.911 42.6754 146.569 40.4597C145.785 40.0601 144.943 39.6751 144.057 39.3119C144.246 39.123 144.442 38.9414 144.645 38.767C145.11 38.9632 145.567 39.1666 146.003 39.3772C152.269 42.3485 155.834 46.3659 157.787 49.4462C158.237 50.1508 158.601 50.8047 158.891 51.3859C159.399 49.0393 159.951 46.7001 160.597 44.3826C161.055 42.7335 161.556 41.099 162.093 39.4789C163.001 38.4837 164.554 36.9581 166.725 35.4107C170.414 32.7808 175.881 30.1074 182.975 29.9113H183.033L183.244 29.1775C183.244 29.1775 183.208 29.1775 183.186 29.1775C176.477 29.3083 171.176 31.6112 167.393 34.074C165.368 35.3962 163.778 36.7619 162.645 37.8662C163.001 36.8636 163.371 35.8756 163.763 34.8876C163.821 34.8658 163.872 34.8295 163.908 34.7787C163.923 34.7569 165.687 32.4394 169.397 30.3544C169.564 30.26 169.731 30.1655 169.906 30.0711C172.868 28.4947 177.486 26.8746 183.832 26.94H183.89L184.093 26.2208H184.035C178.009 26.1264 173.398 27.5357 170.073 29.2066C167.422 30.5433 165.585 32.0399 164.504 33.0787C164.816 32.3304 165.15 31.5894 165.491 30.8557C165.782 30.2237 166.086 29.5916 166.399 28.9669C166.638 27.6447 166.863 25.5306 166.58 22.879C166.203 19.3338 164.823 14.1904 160.663 8.58201L160.917 8.28415C160.989 8.19697 161.076 8.11707 161.156 8.02989C167.03 15.8903 167.648 23.0243 167.343 27.1216C170.16 21.8329 173.667 16.9147 178.067 12.5994C178.183 12.5558 178.292 12.5195 178.408 12.4759C178.553 12.4251 178.706 12.3815 178.858 12.3379C180.39 11.8657 182.271 11.4588 184.471 11.2845C186.918 11.0883 189.757 11.1828 192.973 11.8003C193.003 11.8003 193.032 11.8075 193.068 11.8148L193.322 11.1247C193.322 11.1247 193.264 11.1174 193.228 11.1101C190.331 10.5435 187.695 10.3909 185.342 10.5072C183.287 10.6089 181.443 10.9213 179.824 11.3426C179.613 11.3935 179.41 11.4516 179.207 11.5097C180.434 10.3764 181.726 9.28669 183.091 8.25509C185.357 6.52609 187.818 4.94963 190.49 3.51848C191.775 2.82833 193.112 2.18177 194.506 1.56426C194.636 1.50615 194.76 1.44804 194.89 1.38992C194.201 0.525413 193.126 -0.0412389 191.877 0.00234951L177.312 0.525412C175.453 0.590794 173.783 1.67324 172.963 3.33686L172.825 3.62019C171.83 5.62525 169.637 6.73676 167.437 6.359L165.723 6.0684C163.959 5.76328 162.166 6.41711 161.011 7.78288L151.245 19.312C150.214 20.5325 149.568 22.0145 149.372 23.5764C149.307 24.0704 149.292 24.579 149.321 25.0802L149.612 30.0929C149.655 30.8702 149.583 31.6403 149.416 32.3813C148.944 34.4663 147.666 36.326 145.807 37.5029L145.633 37.6119C145.473 37.7136 145.313 37.8299 145.161 37.9388C143.679 39.0285 142.598 40.5759 142.104 42.363C141.704 43.816 141.218 45.7048 140.731 47.6082C140.543 48.3492 140.397 49.0902 140.281 49.8457C139.541 54.4153 140.02 59.1155 141.69 63.4598C141.959 64.1645 142.598 65.3342 143.425 66.7217C143.469 66.8016 143.52 66.8743 143.563 66.9542C143.825 67.3973 144.108 67.8623 144.405 68.3418L144.42 68.3635C145.451 70.0344 146.729 71.5528 148.29 72.7297C149.59 73.7177 151.049 74.5023 152.61 75.0471C152.588 75.2723 152.559 75.4975 152.53 75.7227C152.385 77.103 152.262 78.4688 152.153 79.8201C151.79 84.3968 151.63 88.7847 151.608 92.882C151.376 92.3154 151.129 91.7488 150.882 91.1894L150.955 91.4872L150.824 91.4509C149.764 88.8719 148.58 86.4818 147.303 84.237C145.233 80.5828 142.91 77.3428 140.419 74.4732C140.339 74.4732 140.267 74.4732 140.187 74.4732C139.236 74.495 138.154 74.5676 136.978 74.7275C132.614 75.2941 126.914 76.9795 121.664 81.4546L121.229 81.1931L121.664 81.4546L121.73 81.4982L124.823 83.3652C125.527 83.7938 126.246 84.1934 126.979 84.5639C127.437 84.7964 127.901 85.0216 128.366 85.2323C129.303 85.6536 130.254 86.0314 131.227 86.3656C131.713 86.5327 132.2 86.6852 132.694 86.8305C133.086 86.9468 133.485 87.0557 133.884 87.1574L147.869 90.7026C148.624 92.3009 149.314 93.9427 149.931 95.6063C150.628 97.4952 151.245 99.4276 151.761 101.396C151.841 103.38 151.942 105.261 152.066 106.99C152.421 112.083 152.908 115.991 153.227 118.236H156.626C156.604 114.4 157.468 105.007 165.716 99.7835C167.241 101.149 169.383 101.854 171.75 101.345C183.07 98.9336 187.187 87.9348 188.348 83.8157C188.581 82.9947 187.993 82.1665 187.143 82.0939C173.108 80.9388 166.914 86.0968 164.213 91.371C163.197 93.347 163.197 95.4174 163.894 97.1682C159.37 100.081 156.785 104.113 155.319 107.993C155.064 104.673 154.861 100.757 154.796 96.4345C163.066 82.4935 177.152 75.6138 187.651 73.1292C198.768 70.3977 206.072 72.3519 206 72.0613C205.891 71.8652 205.774 71.669 205.666 71.4729H205.702Z" fill="#295F4F"/>
<path d="M136.397 74.0882C137.558 73.9211 138.633 73.8266 139.599 73.783C139.679 73.783 139.758 73.783 139.838 73.7758C139.214 73.0856 138.589 72.4173 137.943 71.7634C137.863 71.7634 137.769 71.7562 137.675 71.7489C137.362 71.7344 136.999 71.7271 136.571 71.7344C136.317 71.7344 136.041 71.7489 135.758 71.7707C135.286 71.7998 134.77 71.8506 134.211 71.9233C133.303 72.0468 132.287 72.2429 131.191 72.548C127.967 73.4343 123.516 75.4321 118.971 79.8128L118.324 79.4278C123.959 73.9356 129.6 71.9741 133.55 71.3203C134.109 71.2259 134.64 71.1605 135.126 71.1169C135.453 71.0878 135.765 71.0588 136.063 71.0442C136.375 71.0297 136.658 71.0224 136.919 71.0224C137.007 71.0224 137.101 71.0224 137.181 71.0224C135.808 69.6785 134.4 68.4362 132.969 67.2884C130.661 63.9684 129.31 60.6048 128.562 57.481C128.272 57.2558 127.974 57.0451 127.676 56.8344C128.279 59.7112 129.361 62.8205 131.212 65.9226C130.581 65.4504 129.942 64.9854 129.303 64.5423C128.243 63.8086 127.183 63.1257 126.115 62.4791C126.057 62.3919 125.999 62.3048 125.941 62.2248C123.886 59.0719 122.724 56.1225 122.078 53.6307C121.81 53.5072 121.541 53.3909 121.272 53.2747C121.839 55.7084 122.841 58.4399 124.54 61.3313C124.605 61.4475 124.67 61.5565 124.743 61.6727C123.966 61.2296 123.189 60.801 122.419 60.4014C121.599 60.3142 120.023 60.2343 117.961 60.5104C117.184 60.6121 116.342 60.7646 115.449 60.9898C112.363 61.7526 108.123 63.4744 103.708 67.3174C103.57 67.1213 103.432 66.9179 103.294 66.7217C108.312 62.3847 113.205 60.6339 116.887 59.9728C118.462 59.6895 119.813 59.6095 120.858 59.6095C113.67 56.1007 106.816 54.3063 101.857 53.3982C99.4315 52.955 97.4492 52.7153 96.1132 52.5991C96.0697 52.7298 96.0334 52.8751 96.0188 53.0132C95.9971 53.1512 95.9971 53.2965 96.0044 53.4418C96.0044 53.4708 96.0188 53.4926 96.0188 53.5217C96.0479 53.7832 96.1205 54.052 96.2657 54.3063L101.726 64.1863C101.995 64.6803 102.285 65.1598 102.583 65.6247C102.808 65.9952 103.047 66.3512 103.287 66.7145C103.425 66.9179 103.556 67.114 103.701 67.3102C103.832 67.4918 103.948 67.6879 104.086 67.8623C104.514 68.4507 104.964 69.0174 105.436 69.5695C106.838 71.2331 108.406 72.7587 110.112 74.1245C110.417 74.3715 110.737 74.5967 111.056 74.8292L117.438 71.7417L115.282 77.5825L121.258 81.1931L121.047 81.0623C126.268 76.5364 131.946 74.742 136.404 74.0882H136.397Z" fill="#295F4F"/>
<path d="M135.002 57.1759C136.229 59.348 137.776 61.324 139.584 63.0385L142.612 65.9153L143.447 66.7072C142.626 65.3196 141.987 64.15 141.711 63.4453C140.034 59.101 139.562 54.4007 140.303 49.8312C140.426 49.0829 140.572 48.3347 140.753 47.5937C141.232 45.6903 141.719 43.7942 142.125 42.3485C142.619 40.5687 143.701 39.014 145.182 37.9243C142.735 34.0885 139.286 30.9501 135.14 28.887L129.237 25.9447C128.606 25.6324 127.909 25.7777 127.437 26.1917C127.117 26.4751 126.907 26.8892 126.907 27.3759L126.848 35.9265C126.819 40.358 127.952 44.7241 130.145 48.5817L135.01 57.1686L135.002 57.1759Z" fill="#71A19B"/>
<path d="M149.96 95.6136C144.035 90.3176 134.24 92.7876 130.348 94.5675C129.586 94.9162 129.448 95.8751 130.239 96.1439C146.446 101.629 151.035 105.799 152.095 106.997C151.971 105.268 151.87 103.387 151.79 101.404C151.274 99.4348 150.657 97.5024 149.96 95.6136V95.6136Z" fill="#71A19B"/>
<path d="M126.13 62.4719C127.197 63.1184 128.257 63.8013 129.317 64.5351C129.956 64.9782 130.595 65.4359 131.227 65.9154C129.375 62.8133 128.286 59.704 127.691 56.8272C125.926 55.5776 124.053 54.5097 122.093 53.6234C122.739 56.1152 123.901 59.0647 125.956 62.2176C126.014 62.3048 126.072 62.3919 126.13 62.4719V62.4719Z" fill="#71A19B"/>
<path d="M184.507 11.2845C182.307 11.4588 180.434 11.8657 178.895 12.3379C178.742 12.3815 178.589 12.4323 178.444 12.4759C178.328 12.5122 178.219 12.5558 178.103 12.5994C173.703 16.9146 170.196 21.8329 167.379 27.1216C167.691 23.0243 167.067 15.8903 161.192 8.02988C161.113 8.10979 161.025 8.18969 160.953 8.28414L160.699 8.58199C164.859 14.1976 166.239 19.3338 166.616 22.879C166.9 25.5306 166.674 27.6447 166.435 28.9668C166.123 29.5916 165.825 30.2237 165.527 30.8557C165.186 31.5894 164.859 32.3304 164.54 33.0787C165.614 32.0471 167.451 30.5433 170.109 29.2066C173.434 27.5284 178.045 26.1191 184.071 26.2208L184.819 23.6127C184.863 23.4747 184.877 23.3222 184.899 23.1841C184.986 22.741 185.03 22.2978 184.994 21.8474L184.936 21.1137C184.914 20.7868 184.921 20.4598 184.957 20.1475C185.204 18.0116 186.802 16.2172 188.98 15.7741C190.701 15.4254 192.124 14.2049 192.726 12.5558L193.002 11.8075C189.786 11.19 186.947 11.0956 184.5 11.2917L184.507 11.2845Z" fill="#71A19B"/>
<path d="M169.426 30.3544C165.716 32.4467 163.952 34.7569 163.937 34.7786C163.901 34.8295 163.85 34.8658 163.792 34.8876C163.4 35.8756 163.03 36.8636 162.674 37.8662C163.807 36.7619 165.397 35.3961 167.422 34.074C171.205 31.604 176.506 29.3083 183.215 29.1775L183.854 26.94C177.508 26.8674 172.89 28.4947 169.927 30.0711C169.753 30.1655 169.586 30.26 169.419 30.3544H169.426Z" fill="#71A19B"/>
<path d="M157.489 63.9757C157.083 64.4043 156.785 64.7603 156.596 65C156.11 68.6614 155.718 72.272 155.376 75.7445H155.435C155.536 75.7663 155.638 75.7809 155.747 75.7954C156.836 75.948 157.954 75.9915 159.094 75.9044C159.82 75.8462 160.532 75.7373 161.221 75.592C164.206 74.96 166.863 73.4997 168.954 71.4729C170.937 69.5477 172.418 67.1213 173.187 64.4115L173.471 63.2347L175.09 56.5148C169.136 56.8853 164.845 58.6724 162.078 60.3288C159.922 61.6219 158.419 62.9877 157.489 63.9684V63.9757Z" fill="#71A19B"/>
<path d="M162.129 39.4717C161.592 41.0917 161.091 42.7263 160.633 44.3754C159.987 46.6928 159.428 49.0393 158.927 51.3786C158.637 50.7974 158.266 50.1436 157.823 49.4389C155.87 46.3587 152.305 42.3413 146.039 39.37C145.603 39.1593 145.146 38.9631 144.681 38.7597C144.478 38.9341 144.282 39.1157 144.093 39.3046C144.979 39.6678 145.821 40.0529 146.605 40.4524C150.947 42.6609 153.794 45.3271 155.58 47.5065C156.393 48.5018 157.039 49.4607 157.555 50.3252C158.049 51.1607 158.426 51.9162 158.688 52.5192C158.506 53.4127 158.339 54.3063 158.172 55.1998C157.787 54.4661 157.337 53.6888 156.821 52.8751C154.926 49.9111 152.095 46.5839 147.985 43.8886C146.431 42.8643 144.689 41.9417 142.743 41.1571C142.626 41.3678 142.525 41.593 142.43 41.8109C144.667 42.7118 146.627 43.8015 148.341 45.0074C152.204 47.7172 154.832 50.9863 156.567 53.8341C157.112 54.7276 157.569 55.5776 157.954 56.3622C157.511 58.8177 157.134 61.2659 156.8 63.6923C157.068 63.409 157.381 63.0821 157.758 62.7334C160.474 60.1907 166.072 56.2968 175.293 55.781L176.709 49.8893L176.731 49.8021H176.724L172.12 44.3609L179.809 41.0118C179.882 40.8665 179.94 40.7139 179.991 40.5541L183.033 29.9113C175.939 30.1002 170.472 32.7809 166.783 35.4107C164.612 36.9581 163.059 38.4837 162.151 39.4789L162.129 39.4717Z" fill="#71A19B"/>
<path d="M122.434 60.3941C123.211 60.7937 123.981 61.2223 124.758 61.6655C124.685 61.5492 124.62 61.433 124.554 61.324C122.862 58.4327 121.853 55.7011 121.287 53.2674C118.782 52.2213 116.161 51.473 113.467 51.059C111.811 50.8047 110.127 50.6739 108.428 50.6667C107.861 50.6667 107.295 50.6812 106.729 50.7103L106.322 50.732L98.0302 51.1389C97.6817 51.1534 97.3622 51.2551 97.0863 51.4149C96.9048 51.5166 96.7378 51.6474 96.5926 51.8C96.382 52.0252 96.215 52.294 96.1206 52.5918C97.4566 52.7153 99.4315 52.9478 101.864 53.3909C106.823 54.299 113.677 56.0934 120.866 59.6023C119.82 59.6023 118.47 59.6822 116.894 59.9655C113.213 60.6266 108.319 62.3774 103.302 66.7145C103.44 66.9179 103.57 67.114 103.716 67.3102C108.137 63.4671 112.37 61.7454 115.456 60.9826C116.357 60.7574 117.199 60.6121 117.969 60.5031C120.038 60.2271 121.614 60.307 122.427 60.3941H122.434Z" fill="#71A19B"/>
<path d="M140.216 74.4805C140.296 74.4805 140.368 74.4805 140.448 74.4805C142.939 77.3428 145.262 80.5829 147.332 84.2443C148.602 86.4964 149.793 88.8792 150.853 91.4582L150.984 91.4945L150.911 91.1967L149.742 86.4455L149.118 83.9174C148.922 83.1328 148.704 82.3627 148.457 81.5999C148.333 81.2222 148.203 80.8372 148.065 80.4666C146.286 75.5847 143.382 71.1605 139.57 67.579L134.044 62.3775L131.278 59.7767C130.45 58.9993 129.586 58.2656 128.693 57.5827C128.649 57.5537 128.606 57.5246 128.569 57.4955C129.317 60.6194 130.668 63.9902 132.977 67.3029C134.407 68.458 135.816 69.7003 137.188 71.037C137.108 71.037 137.014 71.037 136.927 71.037C136.665 71.037 136.382 71.0443 136.07 71.0588C135.779 71.0733 135.467 71.0951 135.133 71.1315C134.647 71.1751 134.117 71.2404 133.558 71.3349C129.608 71.9887 123.959 73.9574 118.332 79.4423L118.978 79.8273C123.523 75.4394 127.974 73.4489 131.198 72.5626C132.294 72.2575 133.311 72.0614 134.218 71.9379C134.777 71.8579 135.293 71.8143 135.765 71.7853C136.055 71.7635 136.331 71.7562 136.578 71.749C136.999 71.7417 137.37 71.749 137.682 71.7635C137.776 71.7635 137.871 71.7708 137.95 71.778C138.589 72.4246 139.221 73.0929 139.846 73.7904C139.766 73.7904 139.686 73.7904 139.606 73.7976C138.64 73.8412 137.566 73.9356 136.404 74.1027C131.946 74.7566 126.268 76.551 121.047 81.0769L121.701 81.4692C126.95 76.9941 132.643 75.3087 137.014 74.742C138.19 74.5895 139.279 74.5168 140.223 74.4878L140.216 74.4805Z" fill="#71A19B"/>
<path d="M135.264 149.627C135.445 149.867 135.663 150.077 135.91 150.266C135.663 150.085 135.445 149.867 135.264 149.627Z" fill="#9DBD59"/>
<path d="M175.634 118.236H154.883V144.338C154.883 147.288 157.337 149.852 160.909 151H138.154C137.304 151 136.513 150.724 135.903 150.259C136.513 150.724 137.304 151 138.154 151H170.196C172.011 151 173.536 149.743 173.688 148.109L173.899 145.806L174.683 137.161L175.228 131.196L176.012 122.551L176.331 118.941C176.375 118.563 176.041 118.251 175.634 118.251V118.236Z" fill="#9DBD59"/>
<path d="M132.723 118.236C132.519 118.236 132.338 118.316 132.207 118.439C132.338 118.316 132.519 118.236 132.723 118.236Z" fill="#9DBD59"/>
<path d="M154.883 144.338V118.236H132.723C132.519 118.236 132.338 118.316 132.207 118.439C132.076 118.563 132.004 118.737 132.026 118.926L132.345 122.537L133.129 131.196L133.674 137.153L134.066 141.476L134.458 145.798L134.669 148.101C134.705 148.508 134.828 148.893 135.024 149.242C135.605 150.288 136.796 150.993 138.161 150.993H160.917C157.337 149.845 154.89 147.28 154.89 144.331L154.883 144.338Z" fill="#698C48"/>
</g>
</g>
<defs>
<filter id="filter0_d_429_16982" x="48" y="31" width="122" height="121.52" filterUnits="userSpaceOnUse" color-interpolation-filters="sRGB">
<feFlood flood-opacity="0" result="BackgroundImageFix"/>
<feColorMatrix in="SourceAlpha" type="matrix" values="0 0 0 0 0 0 0 0 0 0 0 0 0 0 0 0 0 0 127 0" result="hardAlpha"/>
<feOffset dy="1"/>
<feGaussianBlur stdDeviation="0.5"/>
<feComposite in2="hardAlpha" operator="out"/>
<feColorMatrix type="matrix" values="0 0 0 0 0.121569 0 0 0 0 0.129412 0 0 0 0 0.141176 0 0 0 0.1 0"/>
<feBlend mode="normal" in2="BackgroundImageFix" result="effect1_dropShadow_429_16982"/>
<feBlend mode="normal" in="SourceGraphic" in2="effect1_dropShadow_429_16982" result="shape"/>
</filter>
<clipPath id="clip0_429_16982">
<rect width="226" height="151" fill="white"/>
</clipPath>
</defs>
</svg>
